<svg width="465" height="537" viewBox="0 0 465 537" fill="none" xmlns="http://www.w3.org/2000/svg">
<path d="M133.609 203.669H93.2356C92.1117 203.669 90.9988 203.431 89.9611 202.969C88.9228 202.507 87.9794 201.829 87.1856 200.975C86.3913 200.12 85.762 199.106 85.3326 197.991C84.9037 196.875 84.6834 195.679 84.6851 194.472V90.193C84.6851 88.9868 84.9064 87.7925 85.3359 86.6783C85.7659 85.5646 86.3957 84.5524 87.19 83.6996C87.9838 82.8469 88.9266 82.1709 89.9638 81.7101C91.0011 81.2494 92.1128 81.0122 93.2356 81.0134H159.89C161.015 81.0092 162.128 81.244 163.169 81.703C164.209 82.1626 165.155 82.838 165.952 83.6908C166.748 84.5435 167.381 85.5569 167.812 86.6724C168.244 87.7884 168.467 88.9845 168.468 90.193V118.319" stroke="#CCDDE2" stroke-width="4.5" stroke-miterlimit="10"/>
<path d="M157.864 93.649H96.134C93.7714 93.649 91.856 95.7068 91.856 98.2448V110.627C91.856 113.165 93.7714 115.222 96.134 115.222H157.864C160.227 115.222 162.142 113.165 162.142 110.627V98.2448C162.142 95.7068 160.227 93.649 157.864 93.649Z" stroke="#CCDDE2" stroke-width="4.5" stroke-miterlimit="10"/>
<path d="M126.566 102.734C127.712 102.734 128.641 101.736 128.641 100.505C128.641 99.273 127.712 98.275 126.566 98.275C125.419 98.275 124.49 99.273 124.49 100.505C124.49 101.736 125.419 102.734 126.566 102.734Z" fill="#D7E8F0"/>
<path d="M120.764 110.603C120.715 109.753 120.828 108.902 121.098 108.101C121.367 107.299 121.786 106.566 122.329 105.946C122.872 105.325 123.528 104.831 124.255 104.493C124.983 104.155 125.767 103.98 126.56 103.98C127.353 103.98 128.137 104.155 128.864 104.493C129.592 104.831 130.248 105.325 130.791 105.946C131.334 106.566 131.753 107.299 132.022 108.101C132.291 108.902 132.405 109.753 132.356 110.603H120.764Z" fill="#D7E8F0"/>
<path d="M126.99 138.344C124.777 138.344 122.614 139.049 120.774 140.37C118.934 141.691 117.5 143.568 116.653 145.764C115.806 147.961 115.584 150.378 116.016 152.709C116.448 155.041 117.514 157.182 119.079 158.864C120.644 160.545 122.637 161.69 124.807 162.154C126.978 162.617 129.228 162.379 131.272 161.469C133.317 160.56 135.065 159.019 136.294 157.042C137.523 155.065 138.179 152.741 138.179 150.364C138.18 148.786 137.891 147.222 137.329 145.764C136.767 144.305 135.943 142.979 134.904 141.863C133.865 140.747 132.631 139.861 131.273 139.258C129.915 138.654 128.46 138.343 126.99 138.344ZM126.99 159.479C126.603 159.41 126.251 159.196 125.997 158.874C125.743 158.553 125.604 158.145 125.604 157.723C125.604 157.302 125.743 156.894 125.997 156.572C126.251 156.251 126.603 156.037 126.99 155.968C127.227 155.926 127.47 155.94 127.702 156.009C127.933 156.078 128.148 156.2 128.331 156.367C128.515 156.534 128.662 156.742 128.763 156.976C128.864 157.21 128.916 157.465 128.916 157.723C128.916 157.981 128.864 158.237 128.763 158.471C128.662 158.705 128.515 158.913 128.331 159.08C128.148 159.247 127.933 159.369 127.702 159.438C127.47 159.507 127.227 159.521 126.99 159.479ZM129.06 145.964C128.794 148.622 128.338 151.255 127.697 153.839C127.63 153.977 127.529 154.092 127.404 154.173C127.28 154.254 127.138 154.296 126.993 154.296C126.848 154.296 126.706 154.254 126.582 154.173C126.458 154.092 126.357 153.977 126.289 153.839C125.779 151.934 125.387 149.995 125.119 148.034C124.893 146.61 124.12 144.298 124.86 142.91C125.511 141.671 127.355 141.522 128.42 142.169C129.728 142.969 129.215 144.665 129.06 145.964Z" fill="#D7E8F0"/>
<path d="M98.8828 124.853H153.536" stroke="#CCDDE2" stroke-width="4.5" stroke-miterlimit="10"/>
<path d="M98.8828 130.635H153.536" stroke="#CCDDE2" stroke-width="4.5" stroke-miterlimit="10"/>
<path d="M98.8828 167.846H153.536" stroke="#CCDDE2" stroke-width="4.5" stroke-miterlimit="10"/>
<path d="M111.579 173.315H140.84" stroke="#CCDDE2" stroke-width="4.5" stroke-miterlimit="10"/>
<path d="M436.524 181.385H352.747C345.772 181.385 340.118 187.46 340.118 194.953V348.665C340.118 356.158 345.772 362.232 352.747 362.232H436.524C443.5 362.232 449.154 356.158 449.154 348.665V194.953C449.154 187.46 443.5 181.385 436.524 181.385Z" fill="#3FBDF1"/>
<path d="M322.007 181.385H263.671C256.696 181.385 251.042 187.46 251.042 194.953V348.665C251.042 356.158 256.696 362.232 263.671 362.232H322.007C328.982 362.232 334.636 356.158 334.636 348.665V194.953C334.636 187.46 328.982 181.385 322.007 181.385Z" fill="#3FBDF1"/>
<path d="M255.872 454.195H448.553C451.882 454.193 455.075 452.772 457.429 450.244C459.784 447.715 461.108 444.286 461.111 440.71V183.769C461.111 181.997 460.787 180.242 460.156 178.605C459.525 176.968 458.6 175.481 457.434 174.228C456.268 172.975 454.883 171.981 453.359 171.304C451.835 170.626 450.202 170.277 448.553 170.278H317.607L283.383 170.498H283.284L265.979 171.221H265.923L261.369 171.411H260.967L260.63 174.323L259.967 179.737C259.975 179.747 259.978 179.759 259.978 179.772C259.978 179.785 259.975 179.797 259.967 179.808L254.58 188.383L253.476 190.12L250.434 211.029V211.13C250.368 211.1 250.302 211.059 250.219 211.012C250.153 210.97 250.09 210.923 250.031 210.869C249.008 210.041 248.239 208.903 247.823 207.602C246.813 204.85 246.57 201.203 246.559 198.309L245.897 214.196V214.255L244.975 235.479L244.749 241.177C245.179 240.353 245.798 239.167 246.515 237.75L244.224 253.476L243.75 264.808L242.568 293.444L242.524 294.512V294.921L242.215 301.895V302.055C242.215 302.055 241.332 322.519 241.332 322.549L241.249 324.446L240.228 332.731L237.247 355.911V440.71C237.248 443.126 237.854 445.497 239.002 447.575C240.15 449.652 241.798 451.359 243.772 452.517C247.509 454.693 251.643 454.402 255.75 454.254C256.854 454.219 257.958 454.165 259.062 454.1" fill="#3FBDF1"/>
<path d="M248.557 449.772C248.48 449.772 248.397 449.695 248.303 449.665C247.254 449.261 246.262 448.702 245.356 448.005C243.765 446.791 242.47 445.184 241.577 443.32C240.685 441.457 240.222 439.391 240.228 437.295V324.127L237.247 325.663L237.059 325.763L236.656 324.69L234.664 319.353L234.112 317.877L229.072 304.362C229.072 304.362 238.643 262.757 244.975 235.479C247.293 225.463 249.181 217.375 249.976 213.977C250.219 212.963 250.362 212.37 250.39 212.269C250.392 212.245 250.392 212.222 250.39 212.198C250.407 211.996 250.378 211.793 250.307 211.605C250.229 211.386 250.134 211.174 250.026 210.971C250.013 210.928 249.994 210.888 249.971 210.852C249.314 209.652 248.576 208.507 247.763 207.424L246.714 193.471L246.885 193.329L247.68 192.647L253.111 188.021L254.375 184.428L256.854 177.442L257.958 174.329H260.585H261.259H266.012L283.576 174.27H285.083L318.407 174.056H445.914C447.52 174.056 449.109 174.396 450.593 175.057C452.076 175.717 453.423 176.686 454.558 177.906C455.692 179.126 456.592 180.575 457.205 182.17C457.817 183.764 458.132 185.472 458.13 187.197V437.295C458.132 439.02 457.817 440.728 457.205 442.322C456.592 443.916 455.692 445.365 454.558 446.586C453.423 447.806 452.076 448.774 450.593 449.435C449.109 450.095 447.52 450.436 445.914 450.436H256.103" fill="#3FBDF1"/>
<path d="M261.314 170.628L265.83 170.599H265.923L283.256 170.498H283.378L317.602 170.278H448.553C451.883 170.28 455.076 171.702 457.431 174.231C459.786 176.761 461.109 180.192 461.111 183.769V440.71C461.108 444.286 459.784 447.715 457.429 450.244C455.074 452.772 451.882 454.193 448.553 454.195H249.463C246.219 454.195 243.107 452.81 240.813 450.346C238.519 447.881 237.23 444.539 237.23 441.054V412.999" stroke="black" stroke-width="4.5" stroke-miterlimit="10"/>
<path d="M436.525 375.514H263.671C256.696 375.514 251.042 381.588 251.042 389.082V426.802C251.042 434.296 256.696 440.37 263.671 440.37H436.525C443.5 440.37 449.154 434.296 449.154 426.802V389.082C449.154 381.588 443.5 375.514 436.525 375.514Z" fill="white"/>
<path d="M379.376 389.962H267.717C265.355 389.962 263.439 392.019 263.439 394.557V422.262C263.439 424.8 265.355 426.858 267.717 426.858H379.376C381.739 426.858 383.654 424.8 383.654 422.262V394.557C383.654 392.019 381.739 389.962 379.376 389.962Z" fill="#3FBDF1"/>
<path d="M359.344 405.503C361.307 405.503 362.899 403.793 362.899 401.684C362.899 399.575 361.307 397.865 359.344 397.865C357.38 397.865 355.789 399.575 355.789 401.684C355.789 403.793 357.38 405.503 359.344 405.503Z" fill="white"/>
<path d="M349.419 418.951C349.419 416.121 350.466 413.405 352.329 411.403C354.193 409.402 356.72 408.277 359.355 408.277C361.99 408.277 364.517 409.402 366.381 411.403C368.244 413.405 369.291 416.121 369.291 418.951H349.419Z" fill="white"/>
<path d="M413.981 389.966C410.519 389.963 407.134 391.062 404.254 393.126C401.374 395.19 399.129 398.124 397.802 401.56C396.475 404.994 396.127 408.775 396.8 412.423C397.474 416.071 399.14 419.422 401.587 422.052C404.034 424.683 407.153 426.474 410.548 427.2C413.943 427.927 417.462 427.554 420.66 426.131C423.859 424.709 426.592 422.298 428.515 419.205C430.438 416.113 431.464 412.477 431.463 408.759C431.463 406.291 431.012 403.848 430.133 401.568C429.256 399.289 427.968 397.218 426.344 395.472C424.721 393.728 422.794 392.343 420.673 391.399C418.551 390.454 416.277 389.967 413.981 389.966ZM413.981 423.014C413.635 423.032 413.289 422.973 412.965 422.843C412.64 422.712 412.344 422.513 412.093 422.256C411.843 421.999 411.644 421.69 411.507 421.348C411.371 421.006 411.301 420.638 411.301 420.266C411.301 419.893 411.371 419.525 411.507 419.183C411.644 418.841 411.843 418.532 412.093 418.275C412.344 418.018 412.64 417.818 412.965 417.689C413.289 417.558 413.635 417.499 413.981 417.517C414.639 417.55 415.26 417.853 415.715 418.366C416.169 418.878 416.423 419.558 416.423 420.266C416.423 420.973 416.169 421.653 415.715 422.165C415.26 422.677 414.639 422.981 413.981 423.014ZM417.199 401.874C416.647 405.954 416.2 410.235 415.068 414.185C414.814 415.139 413.142 415.139 412.86 414.185C412.058 411.208 411.445 408.177 411.028 405.112C410.674 402.888 409.465 399.271 410.625 397.112C411.646 395.173 414.527 394.942 416.183 395.926C418.248 397.183 417.42 399.846 417.199 401.874Z" fill="#3FBDF1"/>
<path d="M432.561 312.117C431.713 319.975 428.685 327.376 423.871 333.362C419.057 339.347 412.68 343.638 405.566 345.68C398.452 347.721 390.932 347.417 383.981 344.808C377.03 342.199 370.97 337.405 366.588 331.048C362.206 324.692 359.705 317.067 359.408 309.163C359.111 301.26 361.034 293.443 364.925 286.729C368.818 280.014 374.499 274.711 381.232 271.51C387.964 268.308 395.438 267.355 402.681 268.775C403 268.841 403.302 268.977 403.57 269.173C403.838 269.369 404.066 269.622 404.239 269.916C404.412 270.211 404.528 270.541 404.578 270.885C404.628 271.229 404.612 271.581 404.53 271.918L403.807 274.948L397.327 302.131C397.224 302.565 397.228 303.02 397.34 303.451C397.452 303.882 397.668 304.274 397.965 304.587C398.263 304.899 398.632 305.123 399.035 305.234C399.439 305.346 399.862 305.341 400.263 305.221L425.418 297.666L428.857 296.634C429.163 296.542 429.484 296.516 429.8 296.559C430.115 296.603 430.42 296.714 430.695 296.886C430.97 297.058 431.21 297.287 431.4 297.561C431.591 297.834 431.729 298.147 431.805 298.478C432.795 302.943 433.051 307.559 432.561 312.117Z" fill="white"/>
<path d="M433.428 284.104C433.547 284.435 433.6 284.79 433.583 285.145C433.566 285.499 433.481 285.846 433.331 286.164C433.182 286.48 432.973 286.76 432.716 286.984C432.46 287.209 432.163 287.373 431.844 287.466L429.476 288.178L408.991 294.327C408.59 294.447 408.166 294.452 407.763 294.34C407.359 294.229 406.99 294.006 406.693 293.693C406.395 293.38 406.18 292.988 406.067 292.557C405.955 292.126 405.951 291.671 406.054 291.238L411.348 269.107L411.856 266.984C411.936 266.647 412.079 266.33 412.278 266.055C412.476 265.78 412.726 265.552 413.01 265.385C413.295 265.218 413.608 265.116 413.931 265.085C414.254 265.054 414.579 265.095 414.886 265.205C419.054 266.75 422.865 269.236 426.063 272.496C429.261 275.756 431.772 279.714 433.428 284.104Z" fill="white"/>
<path d="M395.583 216.751C401.156 216.751 405.673 211.897 405.673 205.91C405.673 199.924 401.156 195.07 395.583 195.07C390.01 195.07 385.492 199.924 385.492 205.91C385.492 211.897 390.01 216.751 395.583 216.751Z" fill="#D7E8F0"/>
<path d="M432.804 229.868H359.35V232.038H432.804V229.868Z" fill="#D7E8F0"/>
<path d="M432.804 237.896H359.35V240.067H432.804V237.896Z" fill="#D7E8F0"/>
<path d="M432.804 245.216H359.35V247.387H432.804V245.216Z" fill="#D7E8F0"/>
<path d="M321.775 275.209H264.234V277.379H321.775V275.209Z" fill="#D7E8F0"/>
<path d="M321.775 283.968H264.234V286.138H321.775V283.968Z" fill="#D7E8F0"/>
<path d="M321.775 292.721H264.234V294.891H321.775V292.721Z" fill="#D7E8F0"/>
<path d="M321.775 301.479H264.234V303.65H321.775V301.479Z" fill="#D7E8F0"/>
<path d="M321.775 310.238H264.234V312.408H321.775V310.238Z" fill="#D7E8F0"/>
<path d="M256.341 213.538C256.341 213.538 273.828 243.123 293.755 252.421C313.683 261.719 319.909 265.829 327.532 262.502C335.155 259.175 349.789 254.514 360.1 221.585C370.412 188.656 375.324 171.323 375.689 163.347C376.053 155.371 355.552 161.923 355.552 161.923C355.552 161.923 344.512 196.881 320.323 212.483L285.873 173.392L256.341 213.538Z" fill="white"/>
<path d="M235.906 259.004L249.982 263.107C249.982 263.107 233.637 287.319 248.171 312.67C262.705 338.021 292.635 389.167 292.635 389.167L349.921 487.012L296.344 478.989L256.341 431.916L235.917 410.041L210.32 324.204L235.906 259.004Z" fill="white"/>
<path d="M6.07501 384.127C7.34064 384.862 8.80565 385.099 10.2168 384.797C11.6279 384.495 12.8966 383.672 13.803 382.472L34.6354 355.034L51.4438 332.369L37.6825 324.067C36.2572 323.202 34.5703 322.981 32.9932 323.451C31.4156 323.922 30.0765 325.045 29.27 326.576L3.62414 374.965C3.2156 375.737 2.95478 376.588 2.85702 377.47C2.75926 378.352 2.8265 379.246 3.0548 380.099C3.28311 380.953 3.66791 381.749 4.18657 382.441C4.70523 383.132 5.34726 383.705 6.07501 384.127Z" fill="#2E2E2E"/>
<path d="M323.177 513.549L340.515 531.873C342.012 533.458 344.027 534.348 346.129 534.351H389.489C390.834 534.357 392.151 533.942 393.28 533.158C394.41 532.372 395.302 531.251 395.848 529.93C396.393 528.61 396.57 527.147 396.355 525.721C396.141 524.295 395.544 522.966 394.639 521.898C393.499 520.528 391.924 519.666 390.223 519.479L366.172 516.828L323.177 513.549Z" fill="#2E2E2E"/>
<path d="M164.841 284.364C164.841 284.364 198.375 294.385 220.731 297.374C243.087 300.363 241.52 290.401 241.52 290.401L244.252 277.817C251.428 265.257 255.596 238.537 255.596 238.537L258.477 217.633L262.683 225.586L276.279 240.298L276.445 240.44C276.031 233.413 276.345 223.54 277.869 210.091C281.379 178.958 293.005 182.569 293.005 182.569L291.299 180.559C283.267 166.203 257.627 151.028 249.435 147.399C241.244 143.769 244.749 148.911 245.792 152.736C246.835 156.56 243.855 167.323 231.915 161.844C219.975 156.365 219.373 144.445 219.373 144.445H213.826C179.795 148.84 162.49 168.337 162.49 168.337C198.64 177.499 190.344 210.44 190.344 210.44L187.065 213.66C174.231 225.615 173.337 237.143 174.446 241.946C175.556 246.75 183.471 253.213 197.763 256.961C212.054 260.709 214.654 260.715 217.883 254.079C221.112 247.444 224.877 246.625 230.027 245.629C235.177 244.633 241.486 248.564 240.046 251.66C238.605 254.755 237.562 252.051 241.15 260.413C244.738 268.774 243.071 273.026 233.422 280.729C223.773 288.432 180.871 284.109 180.871 284.109C160.354 278.013 164.841 284.364 164.841 284.364Z" fill="#2E2E2E"/>
<path d="M243.275 144.643V145.906V146.226C252.867 148.801 261.9 153.357 269.87 159.64C271.162 160.654 272.421 161.686 273.663 162.771C273.696 158.412 273.348 154.036 272.04 149.909C270.98 146.367 268.983 143.233 266.293 140.889C263.925 138.861 261.127 137.562 258.312 136.388C255.496 135.214 252.731 134.182 250.147 132.599C247.97 131.32 246.069 129.562 244.567 127.44C244.04 126.673 243.712 125.769 243.615 124.822C243.518 123.874 243.656 122.916 244.015 122.044C243.761 122.025 243.511 121.971 243.27 121.884L243.275 144.643Z" fill="#3FBDF1"/>
<path d="M243.275 144.643V145.906V146.226C252.867 148.801 261.9 153.357 269.87 159.64C271.162 160.654 272.421 161.686 273.663 162.771C273.696 158.412 273.348 154.036 272.04 149.909C270.98 146.367 268.983 143.233 266.293 140.889C263.925 138.861 261.127 137.562 258.312 136.388C255.496 135.214 252.731 134.182 250.147 132.599C247.97 131.32 246.069 129.562 244.567 127.44C244.04 126.673 243.712 125.769 243.615 124.822C243.518 123.874 243.656 122.916 244.015 122.044C243.761 122.025 243.511 121.971 243.27 121.884L243.275 144.643Z" fill="#3FBDF1"/>
<path d="M110.756 243.093C114.36 245.864 118.366 247.974 122.613 249.338C124.44 249.943 126.295 250.441 128.172 250.832C120.758 232.064 126.306 207.371 149.7 181.042C153.705 176.526 157.97 172.284 162.467 168.34C169.737 161.989 176.196 157.257 183.813 153.45C187.223 151.759 190.726 150.292 194.301 149.055C200.641 146.788 207.185 145.244 213.825 144.448C215.332 144.252 216.823 144.11 218.33 144.021C217.962 141.24 218.035 138.413 218.545 135.66C219.936 128.099 222.359 123.752 226.764 117.792C229.524 114.039 233.835 105.073 228.089 101.977C224.463 100.038 224.131 96.0471 225.837 93.6751C227.278 91.6115 230.192 90.6686 233.786 93.0821C236.27 94.79 239.217 94.8967 242.066 94.0606C244.278 92.6759 246.196 90.8098 247.696 88.5813C251.869 82.1591 252.018 72.428 245.488 67.7136C241.928 65.1341 237.39 64.5114 233.134 65.0095C231.229 65.2343 229.35 65.6755 227.532 66.326C227.524 66.3218 227.515 66.3201 227.507 66.3201C227.498 66.3201 227.49 66.3218 227.482 66.326C219.754 70.7913 214.262 79.0458 211.612 88.35C210.055 93.8471 208.3 99.2909 206.247 104.628C204.557 109.004 203.382 114.323 199.623 117.312C198.052 118.56 196.268 119.467 194.373 119.981C187.269 124.82 177.416 122.026 169.649 120.995C163.439 120.083 157.117 120.765 151.201 122.987C144.577 126.587 138.88 132.333 134.26 139.805C126.626 152.169 134.707 169.994 121.94 179.743C118.076 182.679 113.66 184.458 109.437 186.735C103.409 190.026 98.5403 194.705 96.7408 201.91C93.1859 216.444 99.5118 234.323 110.756 243.093Z" fill="#3FBDF1"/>
<path d="M422.94 534.35H120.863" stroke="black" stroke-width="4.5" stroke-miterlimit="10"/>
<path d="M254.354 82.7266C255.13 84.4546 255.793 86.2377 256.341 88.0636C257.136 91.0286 256.274 92.8669 257.483 95.6955C257.897 96.6739 258.494 98.3284 259.139 100.001C259.322 99.6093 259.487 99.2891 259.586 99.04C264.323 87.7078 258.096 82.2462 255.099 80.3783C254.908 81.1812 254.659 81.9663 254.354 82.7266Z" fill="#3FBDF1"/>
<path d="M254.354 82.7266C255.13 84.4546 255.793 86.2377 256.341 88.0636C257.136 91.0286 256.274 92.8669 257.483 95.6955C257.897 96.6739 258.494 98.3284 259.139 100.001C259.322 99.6093 259.487 99.2891 259.586 99.04C264.323 87.7078 258.096 82.2462 255.099 80.3783C254.908 81.1812 254.659 81.9663 254.354 82.7266Z" fill="#3FBDF1"/>
<path d="M149.407 273.905C146.515 298.408 148.855 340.914 195.566 373.434C203.973 379.287 211.54 387.554 218.954 394.699C239.173 414.328 258.408 435.096 276.577 456.917C287.7 470.164 299.055 484.088 310.332 497.502C316.113 504.357 321.957 511.148 327.863 517.877C332.213 522.805 339.113 534.345 346.107 534.345H389.086C392.95 534.345 396.46 530.947 396.405 526.778C396.374 524.977 395.739 523.248 394.617 521.91C393.477 520.54 391.902 519.677 390.201 519.49L366.15 516.839L249.949 318.315C243.954 308.068 238.638 291.203 243.275 280.155C260.939 238.135 259.421 197.408 259.421 197.408" stroke="black" stroke-width="4.5" stroke-miterlimit="10"/>
<path d="M209.57 386.207C204.503 405.331 196.322 424.752 189.565 436.979C187.117 441.443 183.89 445.358 180.06 448.507C166.216 459.899 146.647 458.683 133.372 446.544L67.3471 386.171L34.6411 355.033L13.8086 382.471C12.8239 383.758 11.4251 384.602 9.88915 384.836C8.35327 385.069 6.79161 384.676 5.51251 383.733C4.23342 382.79 3.32985 381.366 2.98027 379.743C2.63068 378.119 2.86048 376.414 3.62423 374.963L29.2757 326.587C30.0821 325.056 31.4213 323.932 32.9989 323.462C34.576 322.992 36.2629 323.213 37.6881 324.078L51.4495 332.38L130.297 379.82C131.609 380.608 133.076 381.051 134.578 381.112C136.081 381.172 137.574 380.849 138.937 380.168C140.3 379.487 141.493 378.468 142.418 377.196C143.343 375.922 143.974 374.432 144.257 372.846L153.597 320.235" stroke="black" stroke-width="4.5" stroke-miterlimit="10"/>
<path d="M243.275 118.36V144.452V145.715V146.035C245.775 149.949 247.034 155.523 244.649 159.674C241.453 165.243 234.399 164.317 229.927 161.204C228.611 160.29 227.355 159.279 226.168 158.18C222.188 154.465 219.612 149.314 218.926 143.699C218.558 140.918 218.631 138.091 219.141 135.338C220.543 127.783 222.961 123.442 227.372 117.465C230.132 113.729 234.437 104.751 228.685 101.655C221.946 98.0438 226.615 87.4765 234.382 92.7602C240.41 96.8697 249.071 91.7461 252.648 86.2372C256.821 79.815 256.97 70.0839 250.44 65.3695C246.879 62.79 242.342 62.1673 238.086 62.6654C225.12 64.1954 215.89 75.0828 212.197 88.034C210.641 93.5311 208.885 98.9748 206.832 104.312C205.143 108.688 203.967 114.007 200.208 116.996C193.032 122.742 182.687 119.736 174.589 118.668C157.731 116.445 144.136 124.468 134.845 139.489C127.211 151.853 135.293 169.678 122.525 179.427C118.661 182.362 114.245 184.141 110.022 186.419C103.994 189.71 99.1255 194.389 97.3536 201.593C93.7767 216.11 100.114 233.989 111.347 242.76C116.497 246.78 122.525 249.182 128.784 250.498" stroke="black" stroke-width="4.5" stroke-miterlimit="10"/>
<path d="M276.555 166.15C276.588 165.818 276.599 165.498 276.615 165.184C276.897 159.449 276.864 153.508 275.125 147.987C274.058 144.449 272.06 141.318 269.373 138.973C267 136.951 264.201 135.641 261.397 134.466C258.593 133.292 255.811 132.272 253.233 130.683C251.051 129.409 249.147 127.648 247.652 125.518C247.128 124.753 246.801 123.853 246.704 122.908C246.607 121.964 246.744 121.009 247.1 120.14" stroke="black" stroke-width="4.5" stroke-miterlimit="10"/>
<path d="M238.047 112.477C240.001 115.478 242.651 118.716 245.991 119.884C250.313 121.396 253.222 117.453 254.773 113.616C255.7 111.333 256.341 108.902 257.091 106.541C257.334 105.765 257.483 105.391 258.311 105.355C259.139 105.32 260.011 105.498 260.862 105.498C260.922 105.496 260.981 105.477 261.033 105.443C261.084 105.409 261.126 105.361 261.155 105.304C261.183 105.246 261.198 105.182 261.195 105.117C261.193 105.052 261.175 104.989 261.143 104.934C260 103.066 258.295 97.9726 257.434 95.9327C256.236 93.104 257.102 91.2717 256.296 88.3007C255.748 86.4767 255.088 84.6935 254.32 82.9637" stroke="black" stroke-width="4.5" stroke-miterlimit="10"/>
<path d="M255.596 77.4785C255.596 77.4785 267.381 82.3352 261.292 96.9289C260.917 97.8125 259.995 99.6567 259.559 100.487" stroke="black" stroke-width="4.5" stroke-miterlimit="10"/>
<path d="M382.716 35.8689C382.716 35.8689 382.782 35.9045 382.915 35.9578L382.716 35.8689Z" fill="#3FBDF1"/>
<path d="M254.944 113.195C254.001 113.334 253.042 113.099 252.249 112.534C251.455 111.968 250.881 111.111 250.633 110.123" stroke="black" stroke-width="4.5" stroke-miterlimit="10"/>
<path d="M256.937 93.6508C254.497 91.516 251.82 94.2438 250.186 96.2244" stroke="black" stroke-width="4.5" stroke-miterlimit="10"/>
<path d="M218.943 143.704C210.76 144.261 202.678 145.949 194.898 148.727C182.202 153.198 173.458 158.968 163.086 168.011C158.589 171.963 154.325 176.211 150.318 180.731C126.902 207.06 121.366 231.765 128.79 250.527C134.824 265.815 148.734 275.297 162.987 280.13C172.31 283.285 182.025 284.643 191.773 284.945C203.393 285.301 215.112 284.826 226.549 282.454C231.368 281.458 236.921 280.64 239.797 275.831C242.673 271.021 242.916 264.534 240.78 259.381C238.776 254.583 233.367 249.424 228.476 253.19C227.934 253.61 227.488 254.158 227.171 254.79C226.855 255.424 226.676 256.125 226.649 256.843" stroke="black" stroke-width="4.5" stroke-miterlimit="10"/>
<path d="M210.105 175.43C210.713 195.094 195.201 206.058 195.201 206.058C190.057 210.535 185.056 215.345 180.849 220.853C178.161 224.37 175.666 228.308 174.43 232.713C173.505 235.718 173.521 238.964 174.474 241.958C175.528 244.727 177.269 247.131 179.508 248.908C183.692 252.425 188.782 254.245 193.827 255.823C199.386 257.532 205.049 258.827 210.773 259.701C214.085 260.211 215.482 259.108 216.994 256.03C218.363 253.243 219.484 250.017 222.018 248.197C225.528 245.665 230.242 245.078 234.305 246.121C240.57 247.722 242.171 253.059 237.065 254.139" stroke="black" stroke-width="4.5" stroke-miterlimit="10"/>
<path d="M206.28 308.837L111.088 284.127L88.4336 384.842L180.987 409.559L183.957 408.094L206.28 308.837Z" fill="white"/>
<path d="M162.357 294.678C166.873 260.723 176.66 252.326 183.03 250.648L182.61 250.398C163.379 242.357 150.042 282.142 147.21 291.446L162.357 294.678Z" fill="#D7E8F0"/>
<path d="M162.092 297.369C166.608 263.414 176.66 252.301 183.03 250.646L182.61 250.397C163.379 242.356 149.49 284.056 146.647 293.354L162.092 297.369Z" fill="#D7E8F0"/>
<path d="M182.61 250.397C160.861 241.313 146.647 293.354 146.647 293.354L162.103 297.369C171.085 245.185 190.355 254.673 190.355 254.673C189.676 254.453 182.61 250.397 182.61 250.397Z" stroke="black" stroke-width="4.5" stroke-miterlimit="10"/>
<path d="M110.027 288.927L88.4365 384.875L163.537 404.378L185.127 308.431L110.027 288.927Z" fill="#3FBDF1"/>
<path d="M111.173 283.848L88.4385 384.879L167.514 405.415L190.249 304.384L111.173 283.848Z" fill="white"/>
<path d="M111.545 291.533L91.9649 378.545C91.4101 381.012 92.8216 383.496 95.1179 384.092L161.902 401.436C164.198 402.032 166.51 400.515 167.066 398.048L186.646 311.036C187.201 308.568 185.789 306.085 183.493 305.489L116.709 288.145C114.412 287.549 112.101 289.065 111.545 291.533Z" fill="#3FBDF1"/>
<path d="M111.103 284.163L88.4395 384.877L167.516 405.413L190.179 304.699L111.103 284.163Z" stroke="black" stroke-width="4.5" stroke-miterlimit="10"/>
<path d="M190.511 304.779L167.847 405.493L183.633 409.592L206.296 308.878L190.511 304.779Z" fill="white"/>
<path d="M190.511 304.779L167.847 405.493L183.633 409.592L206.296 308.878L190.511 304.779Z" stroke="black" stroke-width="4.5" stroke-miterlimit="10"/>
<path d="M183.626 409.56L178.542 395.511L167.838 405.462" stroke="black" stroke-width="4.5" stroke-miterlimit="10"/>
<path d="M198.392 306.793L178.542 395.512" stroke="black" stroke-width="4.5" stroke-miterlimit="10"/>
<path d="M372.526 143.415C372.227 143.468 371.974 143.522 371.648 143.593C368.662 144.152 365.831 145.43 363.368 147.329C360.669 149.57 358.218 153.466 357.025 156.817C355.222 161.905 353.24 166.909 351.08 171.831C347.819 179.419 343.94 186.681 339.488 193.535C334.868 200.509 329.32 207.577 322.332 211.918C321.455 212.487 320.531 212.97 319.572 213.359C318.396 213.893 301.853 193.446 300.031 191.169C292.728 182.043 285.177 173.006 276.616 165.196C274.446 163.203 272.2 161.282 269.892 159.485C261.916 153.197 252.877 148.635 243.28 146.054" stroke="black" stroke-width="4.5" stroke-miterlimit="10"/>
<path d="M402.29 142.666C402.322 142.675 402.356 142.675 402.389 142.666C410.04 143.627 407.042 152.486 401.66 152.202C395.715 151.882 389.787 152.202 383.858 152.309C382.224 152.251 380.597 152.572 379.089 153.251C376.108 154.781 375.827 158.197 375.38 161.293C374.783 165.349 374.105 169.405 373.304 173.425C371.747 181.395 369.826 189.258 367.624 197.05C366.2 202.103 364.627 207.131 362.971 212.107C358.135 226.766 352.041 242.314 341.79 253.617C336.127 259.879 328.708 264.504 320.345 263.828C308.571 262.885 297.244 256.534 287.258 249.311C287.216 249.281 287.177 249.245 287.142 249.205C283.415 246.51 279.843 243.575 276.445 240.416C276.445 240.416 262.683 227.252 258.477 217.61" stroke="black" stroke-width="4.5" stroke-miterlimit="10"/>
<path d="M424.044 134.699V135.529C424.044 141.257 419.749 142.242 416.04 142.337L344.241 144.116C341.095 144.205 338.451 141.246 338.384 137.551V137.397C338.384 133.774 340.857 130.761 343.965 130.678C343.965 130.678 384.129 129.463 415.234 128.544C415.824 130.566 417.271 132.131 419.065 133.353C420.564 134.321 422.297 134.79 424.044 134.699Z" stroke="black" stroke-width="4.5" stroke-miterlimit="10"/>
<path d="M462.187 53.0825C462.186 54.0266 461.978 54.957 461.58 55.7984L429.492 126.514C429.115 127.331 428.578 128.051 427.918 128.624C427.258 129.197 426.49 129.61 425.667 129.834C424.341 130.195 422.939 130.039 421.709 129.396C420.726 128.876 419.898 128.071 419.32 127.073C418.741 126.074 418.435 124.921 418.436 123.744C418.441 122.803 418.64 121.876 419.021 121.028L451.125 50.3073C451.708 49.0442 452.672 48.0301 453.859 47.4288C455.046 46.8281 456.388 46.6757 457.666 46.996C458.943 47.3168 460.083 48.0918 460.9 49.1954C461.717 50.299 462.162 51.6664 462.165 53.0766L462.187 53.0825Z" stroke="black" stroke-width="4.5" stroke-miterlimit="10"/>
<path d="M374.872 38.538C384.609 38.538 392.502 30.0579 392.502 19.5974C392.502 9.13688 384.609 0.656982 374.872 0.656982C365.134 0.656982 357.241 9.13688 357.241 19.5974C357.241 30.0579 365.134 38.538 374.872 38.538Z" fill="#3FBDF1"/>
<path d="M369.269 26.114C368.684 25.879 368.137 25.549 367.646 25.1356C366.781 24.4346 366.186 23.4166 365.974 22.275C365.763 21.1335 365.949 19.9482 366.498 18.9447C366.856 18.2929 367.35 17.7395 367.941 17.3279C368.532 16.9162 369.204 16.6577 369.904 16.5727C369.516 15.5934 369.435 14.5052 369.674 13.4724C369.913 12.4396 370.459 11.5186 371.228 10.8485C371.998 10.1785 372.95 9.79602 373.94 9.75884C374.93 9.72172 375.904 10.0319 376.716 10.6427C378.421 11.9176 379.602 14.1651 380.326 16.2169C380.699 17.2943 380.973 18.4085 381.143 19.5436C381.225 20.1366 381.788 23.3981 381.347 23.7302C378.432 25.9005 373.006 27.644 369.269 26.114Z" fill="white"/>
<g opacity="0.72">
<path opacity="0.72" d="M359.995 78.0478C365.355 78.0478 369.699 73.3808 369.699 67.6228C369.699 61.8654 365.355 57.1979 359.995 57.1979C354.636 57.1979 350.291 61.8654 350.291 67.6228C350.291 73.3808 354.636 78.0478 359.995 78.0478Z" fill="#3FBDF1"/>
<path opacity="0.72" d="M361.916 72.0466C361.682 72.3194 361.411 72.5513 361.11 72.7345C360.596 73.0571 359.99 73.1674 359.406 73.044C358.821 72.9207 358.299 72.5726 357.936 72.0644C357.699 71.7317 357.537 71.3445 357.463 70.9324C357.389 70.5208 357.406 70.0962 357.511 69.6924C356.968 69.696 356.438 69.5104 356.001 69.1635C355.565 68.816 355.245 68.3261 355.089 67.7669C354.933 67.2071 354.951 66.6088 355.139 66.0615C355.327 65.5135 355.675 65.0463 356.131 64.729C357.167 64.1135 358.346 63.8336 359.526 63.9225C360.116 63.9403 360.702 64.0239 361.276 64.1716C361.568 64.2427 363.235 64.6223 363.302 64.9306C363.727 66.9883 363.423 70.3269 361.916 72.0466Z" fill="white"/>
</g>
<path d="M414.626 44.8713L405.103 50.3251C401.649 52.3028 400.342 56.9151 402.182 60.6255L407.259 70.856C409.1 74.567 413.393 75.9718 416.847 73.9935L426.371 68.5403C429.825 66.562 431.133 61.9503 429.291 58.2393L424.215 48.0089C422.374 44.2985 418.081 42.8936 414.626 44.8713Z" fill="#3FBDF1"/>
<path d="M418.441 71.0866L425.335 67.1373C426.773 66.3083 427.847 64.9023 428.322 63.2258C428.798 61.5488 428.637 59.7384 427.875 58.1889L423.459 49.2939C422.688 47.7485 421.379 46.594 419.818 46.0828C418.257 45.5716 416.571 45.7454 415.129 46.5661L414.665 46.8329C412.943 49.4006 410.652 53.7948 414.113 55.1765C419.081 57.1749 417.629 60.1695 415.769 64.0062C414.19 67.2262 413.788 70.9918 418.441 71.0866Z" fill="white"/>
<path d="M407.705 60.3176C409.144 60.3176 410.31 59.064 410.31 57.5187C410.31 55.9727 409.144 54.7197 407.705 54.7197C406.266 54.7197 405.099 55.9727 405.099 57.5187C405.099 59.064 406.266 60.3176 407.705 60.3176Z" fill="white"/>
<path d="M375.611 107.034C376.577 107.538 377.605 107.889 378.664 108.077C380.609 108.398 382.597 108.17 384.435 107.418C386.274 106.665 387.899 105.414 389.152 103.784C390.118 102.491 390.841 100.872 391.857 99.5677C392.551 98.616 393.481 97.8931 394.54 97.4804C394.903 97.3974 395.242 97.2201 395.528 96.9645C396.223 96.1936 395.042 95.5413 394.805 94.9186C394.449 93.9141 394.449 92.804 394.805 91.7994C395.711 89.1588 395.736 86.262 394.877 83.603C394.017 80.944 392.326 78.6876 390.091 77.2188C387.856 75.7493 385.216 75.1587 382.621 75.5465C380.026 75.9349 377.636 77.2781 375.86 79.3464C374.105 81.3804 373.05 83.9778 371.957 86.4624C370.986 88.6743 369.953 90.8744 369.418 93.2523C368.176 98.8858 370.98 104.608 375.611 107.034Z" fill="#3FBDF1"/>
<path d="M385.47 87.0205C386.827 87.0205 387.926 85.8392 387.926 84.3816C387.926 82.9241 386.827 81.7428 385.47 81.7428C384.113 81.7428 383.014 82.9241 383.014 84.3816C383.014 85.8392 384.113 87.0205 385.47 87.0205Z" fill="white"/>
<path d="M382.252 94.3031C383.609 94.3031 384.708 93.1218 384.708 91.6642C384.708 90.2072 383.609 89.0254 382.252 89.0254C380.895 89.0254 379.795 90.2072 379.795 91.6642C379.795 93.1218 380.895 94.3031 382.252 94.3031Z" fill="white"/>
<path d="M379.232 101.135C380.589 101.135 381.689 99.9527 381.689 98.4957C381.689 97.0381 380.589 95.8568 379.232 95.8568C377.875 95.8568 376.776 97.0381 376.776 98.4957C376.776 99.9527 377.875 101.135 379.232 101.135Z" fill="white"/>
<g opacity="0.54">
<path opacity="0.54" d="M320.268 117.785C321.014 117.679 321.752 117.514 322.476 117.293L330.789 114.778C333.334 114.007 336.011 113.153 337.816 111.072C341.161 107.212 340.079 101.08 338.782 95.992C337.726 91.8291 336.668 87.6663 335.608 83.5034C334.879 80.6333 334.129 77.7157 332.677 75.2014C331.225 72.6871 328.929 70.5286 326.191 70.066C324.176 69.728 322.134 70.3092 320.163 70.8844L312.187 73.2564C309.57 74.0213 306.81 74.8812 304.978 77.0338C301.721 80.8586 302.77 86.8598 304.017 91.8588L307.202 104.638C309.156 112.317 312.816 118.793 320.268 117.785Z" fill="#3FBDF1"/>
<path opacity="0.54" d="M319.716 100.357C320.208 100.874 320.819 101.241 321.486 101.424C322.152 101.607 322.852 101.597 323.515 101.397C324.177 101.197 324.779 100.813 325.259 100.284C325.739 99.7546 326.082 99.0987 326.252 98.3824L327.179 94.4804L328.101 90.5726C328.27 89.8562 328.261 89.1043 328.074 88.3933C327.887 87.6817 327.53 87.0359 327.037 86.5206C326.544 86.0047 325.933 85.6376 325.266 85.4556C324.599 85.2741 323.9 85.2836 323.238 85.4846L319.633 86.5757L316.023 87.6669C315.362 87.8691 314.762 88.2551 314.284 88.7853C313.805 89.3154 313.465 89.9719 313.297 90.6882C313.129 91.4039 313.14 92.1553 313.328 92.8657C313.516 93.5761 313.874 94.2207 314.367 94.7354L317.055 97.5462L319.716 100.357Z" fill="white"/>
</g>
</svg>
