<svg width="431" height="325" viewBox="0 0 431 325" fill="none" xmlns="http://www.w3.org/2000/svg">
<path d="M232.074 14.3192C232.074 14.3192 291.345 -15.8276 322.209 22.2762C353.072 60.3801 306.921 90.1393 347.467 112.56C388.013 134.981 356.699 178.006 393.462 192.3C430.224 206.594 419.308 268.355 376.221 282.605" stroke="#CCDDE2" stroke-width="5.14" stroke-miterlimit="10"/>
<path d="M62.8819 238.866C62.7681 239.301 62.6733 239.702 62.5927 240.133C62.3983 241.03 62.2181 241.941 62.0901 242.864C59.2451 262.127 68.4534 281.447 81.3507 296.233" stroke="#CCDDE2" stroke-width="5.14" stroke-miterlimit="10"/>
<path d="M268.95 18.3012H88.7618C66.6675 18.3012 48.7563 34.7526 48.7563 55.0462V210.854C48.7563 231.148 66.6675 247.599 88.7618 247.599H268.95C291.044 247.599 308.955 231.148 308.955 210.854V55.0462C308.955 34.7526 291.044 18.3012 268.95 18.3012Z" fill="#A78BFA" fill-opacity="0.58"/>
<path d="M266.299 14.9516H87.6193C64.0584 14.9516 44.9585 32.4944 44.9585 54.1355V208.415C44.9585 230.056 64.0584 247.599 87.6193 247.599H266.299C289.86 247.599 308.96 230.056 308.96 208.415V54.1355C308.96 32.4944 289.86 14.9516 266.299 14.9516Z" stroke="#18181B" stroke-width="5.14" stroke-miterlimit="10"/>
<path d="M263.834 22.808H93.8785C71.7842 22.808 53.873 39.259 53.873 59.553V206.341C53.873 226.635 71.7842 243.086 93.8785 243.086H263.834C285.928 243.086 303.839 226.635 303.839 206.341V59.553C303.839 39.259 285.928 22.808 263.834 22.808Z" fill="#A78BFA" fill-opacity="0.58"/>
<path d="M274.308 34.3712H221.97C214.857 34.3712 209.077 40.0765 209.077 47.1015V175.524C209.077 182.562 214.857 188.272 221.97 188.272H274.308C281.421 188.272 287.225 182.562 287.225 175.524V47.1015C287.225 40.0765 281.44 34.3712 274.308 34.3712ZM281.132 171.948C281.132 177.819 276.323 182.562 270.377 182.562H225.91C219.964 182.562 215.156 177.819 215.156 171.948V50.7076C215.156 44.8411 219.964 40.0939 225.91 40.0939H270.368C276.314 40.0939 281.122 44.8411 281.122 50.7076L281.132 171.948Z" fill="#D7E8F0"/>
<path d="M156.326 196.483L79.6201 195.468C78.7946 195.455 78.0084 195.142 77.4342 194.597C76.8595 194.053 76.5442 193.321 76.557 192.563C76.5565 192.302 76.5983 192.042 76.6803 191.792C76.8766 191.195 77.2787 190.673 77.8259 190.305C78.3735 189.937 79.0364 189.742 79.715 189.749L156.421 190.786C155.839 191.601 155.511 192.547 155.473 193.521C155.442 194.563 155.738 195.591 156.326 196.483Z" fill="#A78BFA" fill-opacity="0.58"/>
<path d="M174.918 194.636C174.723 195.233 174.322 195.756 173.776 196.127C173.229 196.497 172.567 196.696 171.888 196.692L166.35 196.618C166.943 195.767 167.266 194.781 167.283 193.771C167.299 192.761 167.009 191.766 166.445 190.899L171.983 190.973C172.809 190.987 173.595 191.3 174.17 191.844C174.744 192.389 175.061 193.12 175.051 193.878C175.048 194.135 175.003 194.391 174.918 194.636Z" fill="#D7E8F0"/>
<path d="M174.738 205.981C174.543 206.577 174.143 207.098 173.598 207.467C173.052 207.835 172.39 208.03 171.713 208.023L95.481 207C96.3273 206.08 96.8086 204.924 96.8466 203.72C96.8831 202.886 96.7024 202.056 96.3202 201.299L171.798 202.301C172.623 202.315 173.407 202.629 173.981 203.173C174.555 203.717 174.872 204.448 174.861 205.206C174.862 205.468 174.82 205.729 174.738 205.981Z" fill="#D7E8F0"/>
<path d="M86.3152 206.874L79.4446 206.791C78.6204 206.781 77.8343 206.47 77.2591 205.928C76.684 205.386 76.3667 204.656 76.3767 203.899C76.3781 203.634 76.4213 203.369 76.5047 203.116C76.6968 202.52 77.096 201.998 77.6418 201.63C78.1871 201.263 78.849 201.07 79.5252 201.082L85.6467 201.173C85.2939 201.855 85.0938 202.596 85.0587 203.351C85.0061 204.625 85.4518 205.875 86.3152 206.874Z" fill="#A78BFA" fill-opacity="0.58"/>
<path d="M150.897 219.212L79.7243 218.263C78.9007 218.244 78.1183 217.929 77.5451 217.386C76.9723 216.843 76.6546 216.114 76.6612 215.358C76.6646 215.1 76.7091 214.845 76.794 214.6C76.9889 214.002 77.3895 213.479 77.9358 213.108C78.482 212.738 79.1449 212.54 79.8239 212.544L150.887 213.507C150.306 214.363 149.997 215.351 149.997 216.359C149.997 217.368 150.306 218.356 150.887 219.212H150.897Z" fill="#A78BFA" fill-opacity="0.58"/>
<path d="M175.037 217.457C174.842 218.055 174.44 218.578 173.891 218.946C173.342 219.314 172.677 219.507 171.997 219.496L160.84 219.339L150.883 219.212C150.301 218.357 149.993 217.368 149.993 216.36C149.993 215.351 150.301 214.363 150.883 213.507L161.011 213.647L172.087 213.79C172.911 213.803 173.694 214.114 174.268 214.656C174.842 215.198 175.16 215.926 175.151 216.682C175.156 216.944 175.118 217.206 175.037 217.457Z" fill="#D7E8F0"/>
<path d="M166.35 196.617C165.654 197.619 164.618 198.383 163.402 198.791C162.186 199.198 160.858 199.227 159.623 198.872C158.387 198.517 157.313 197.799 156.567 196.828C155.82 195.857 155.442 194.687 155.492 193.499C155.518 192.787 155.697 192.088 156.018 191.44C156.339 190.792 156.796 190.208 157.363 189.723C157.93 189.238 158.595 188.86 159.321 188.61C160.047 188.362 160.82 188.247 161.594 188.273C162.369 188.296 163.131 188.459 163.837 188.753C164.543 189.048 165.179 189.468 165.708 189.988C166.237 190.509 166.648 191.121 166.919 191.788C167.189 192.456 167.313 193.166 167.284 193.878C167.244 194.851 166.922 195.797 166.35 196.617Z" fill="white"/>
<g opacity="0.72">
<path opacity="0.72" d="M164.126 193.289C163.997 193.941 163.668 194.545 163.178 195.031C162.941 195.278 162.679 195.504 162.395 195.707C162.244 195.807 161.447 196.403 161.276 196.329C160.214 195.837 158.868 194.587 158.702 193.381C158.676 193.191 158.676 193 158.702 192.81C158.761 192.48 158.949 192.18 159.231 191.967C159.513 191.754 159.869 191.642 160.233 191.652C160.469 191.662 160.699 191.722 160.905 191.827C161.112 191.932 161.289 192.079 161.423 192.257C161.631 192.019 161.917 191.85 162.239 191.775C162.561 191.699 162.9 191.723 163.207 191.841C163.513 191.959 163.769 192.166 163.936 192.429C164.102 192.693 164.171 192.999 164.131 193.302L164.126 193.289Z" fill="white"/>
</g>
<path d="M95.4811 206.999C94.9178 207.618 94.2113 208.114 93.4128 208.451C92.6143 208.787 91.7438 208.955 90.8656 208.943C89.987 208.931 89.1226 208.739 88.3355 208.381C87.5483 208.023 86.858 207.507 86.3155 206.873C85.4487 205.871 85.0025 204.615 85.059 203.336C85.0941 202.582 85.2937 201.841 85.6469 201.159C86.1467 200.216 86.9329 199.427 87.9106 198.885C88.8883 198.344 90.0159 198.075 91.1567 198.11C92.2559 198.141 93.3232 198.456 94.236 199.019C95.1488 199.582 95.8695 200.371 96.3157 201.294C96.6979 202.051 96.8785 202.881 96.842 203.715C96.8064 204.92 96.3266 206.078 95.4811 206.999Z" fill="white"/>
<g opacity="0.72">
<path opacity="0.72" d="M93.6979 203.136C93.5685 203.788 93.2399 204.392 92.7496 204.878C92.5135 205.127 92.2494 205.353 91.9625 205.553C91.8107 205.653 91.0142 206.254 90.8482 206.176C89.7813 205.684 88.4394 204.434 88.2735 203.227C88.2474 203.038 88.2474 202.846 88.2735 202.657C88.3342 202.327 88.5224 202.028 88.8036 201.815C89.0852 201.602 89.4409 201.489 89.805 201.498C90.0407 201.508 90.2707 201.569 90.4769 201.674C90.6837 201.778 90.861 201.926 90.9952 202.104C91.2029 201.865 91.4897 201.695 91.8122 201.62C92.1346 201.545 92.4751 201.569 92.7814 201.687C93.0877 201.806 93.3437 202.014 93.5102 202.278C93.6761 202.543 93.7439 202.85 93.7027 203.153L93.6979 203.136Z" fill="white"/>
</g>
<path d="M160.84 219.338C160.131 220.324 159.092 221.07 157.879 221.464C156.666 221.857 155.347 221.877 154.122 221.519C152.896 221.161 151.831 220.446 151.088 219.482C150.345 218.517 149.965 217.357 150.005 216.176C150.045 215.232 150.349 214.312 150.887 213.507C151.427 212.713 152.181 212.061 153.076 211.613C153.97 211.166 154.976 210.938 155.994 210.952C157.013 210.966 158.01 211.222 158.89 211.694C159.77 212.165 160.502 212.838 161.015 213.646C161.58 214.528 161.856 215.541 161.812 216.564C161.771 217.553 161.435 218.513 160.84 219.338Z" fill="white"/>
<g opacity="0.72">
<path opacity="0.72" d="M158.654 215.976C158.527 216.629 158.198 217.233 157.706 217.718C157.468 217.966 157.205 218.193 156.919 218.393C156.767 218.498 155.971 219.094 155.805 219.016C154.738 218.524 153.396 217.274 153.23 216.068C153.201 215.878 153.201 215.687 153.23 215.497C153.277 215.224 153.412 214.971 153.618 214.77C153.824 214.569 154.091 214.43 154.384 214.371C154.678 214.312 154.984 214.335 155.263 214.438C155.541 214.541 155.78 214.719 155.947 214.948C156.155 214.711 156.442 214.543 156.764 214.469C157.085 214.395 157.424 214.418 157.73 214.536C158.036 214.654 158.292 214.859 158.459 215.123C158.627 215.385 158.697 215.691 158.659 215.994L158.654 215.976Z" fill="white"/>
</g>
<path d="M75.9689 47.8771L76.1016 64.5794C76.1344 67.4913 77.3918 70.2786 79.6114 72.3582C81.8305 74.4379 84.8391 75.6486 88.008 75.7375L106.026 76.0249C107.572 76.0432 109.106 75.7767 110.537 75.241C111.969 74.7057 113.269 73.9117 114.361 72.907C115.452 71.9022 116.314 70.7063 116.894 69.3906C117.474 68.0744 117.761 66.6651 117.738 65.2457L117.601 48.5478C117.573 45.6328 116.318 42.8412 114.098 40.7576C111.878 38.6745 108.867 37.4611 105.694 37.3723L87.676 37.0805C86.1293 37.0626 84.5944 37.3305 83.1625 37.867C81.73 38.404 80.4298 39.1993 79.3383 40.2062C78.2468 41.2127 77.3862 42.4104 76.8072 43.7279C76.2287 45.0458 75.9433 46.4564 75.9689 47.8771Z" fill="white"/>
<path d="M78.7383 52.0668L78.8331 64.1569C78.8625 66.6869 79.9555 69.1084 81.8839 70.9154C83.8119 72.7219 86.4259 73.7742 89.1794 73.8517L104.827 74.0999C106.171 74.1182 107.505 73.8883 108.75 73.4244C109.995 72.9606 111.126 72.272 112.076 71.3992C113.027 70.5265 113.776 69.4873 114.281 68.3436C114.787 67.1999 115.037 65.9744 115.017 64.7405V63.9218C112.821 59.7974 108.544 53.626 103.983 57.3149C97.4062 62.6239 94.3953 58.5823 90.564 53.3734C87.3349 49.0138 82.47 45.8302 78.7383 52.0668Z" fill="#A78BFA" fill-opacity="0.58"/>
<path d="M108.15 50.4006C110.135 49.1894 110.646 46.6903 109.293 44.8189C107.939 42.9479 105.233 42.4131 103.249 43.6243C101.263 44.8355 100.752 47.3345 102.105 49.2055C103.459 51.0769 106.165 51.6117 108.15 50.4006Z" fill="#A78BFA" fill-opacity="0.58"/>
<path d="M175.833 70.3544C173.019 70.3522 170.275 71.1501 167.975 72.6391C165.675 74.1277 163.934 76.2344 162.99 78.6689C162.047 81.1035 161.948 83.7467 162.707 86.2353C163.465 88.7238 165.044 90.9354 167.227 92.566L136.245 143.609C136.025 143.578 135.804 143.557 135.581 143.548C135.012 143.556 134.447 143.637 133.903 143.788L110.687 117.308C111.714 115.993 112.293 114.427 112.348 112.81C112.403 111.192 111.934 109.595 110.998 108.223C110.063 106.852 108.705 105.767 107.097 105.106C105.488 104.445 103.702 104.239 101.965 104.514C100.228 104.789 98.6199 105.531 97.3444 106.648C96.0689 107.764 95.1836 109.204 94.8014 110.784C94.4197 112.364 94.5577 114.013 95.1988 115.521C95.8403 117.028 96.9551 118.327 98.4018 119.25L82.1426 161.757C80.7206 161.834 79.3706 162.361 78.3237 163.248C77.2762 164.135 76.5958 165.328 76.3981 166.624C76.2003 167.92 76.4972 169.239 77.2388 170.356C77.9804 171.474 79.1203 172.321 80.465 172.753C81.8093 173.186 83.2759 173.177 84.6144 172.729C85.9525 172.281 87.081 171.42 87.8065 170.294C88.5325 169.168 88.8113 167.846 88.5955 166.553C88.3798 165.259 87.6832 164.074 86.6235 163.199L102.887 120.692C103.087 120.692 103.281 120.718 103.48 120.718C104.692 120.719 105.89 120.492 107.003 120.052L130.199 146.527C129.694 147.382 129.439 148.343 129.461 149.315C129.482 150.288 129.779 151.239 130.322 152.074C130.866 152.909 131.636 153.6 132.558 154.078C133.48 154.557 134.522 154.806 135.581 154.802C136.732 154.808 137.861 154.514 138.838 153.956C139.815 153.398 140.601 152.598 141.104 151.647C141.607 150.697 141.808 149.635 141.684 148.585C141.559 147.534 141.113 146.537 140.399 145.708L171.381 94.6826C173.251 95.2776 175.241 95.4905 177.21 95.3072C179.18 95.1234 181.082 94.5476 182.784 93.62C184.487 92.6923 185.949 91.4345 187.068 89.935C188.187 88.4351 188.937 86.7296 189.265 84.9361C189.593 83.143 189.492 81.306 188.968 79.5526C188.444 77.7992 187.51 76.1716 186.232 74.7836C184.953 73.3956 183.361 72.2802 181.564 71.5155C179.769 70.7503 177.813 70.3544 175.833 70.3544Z" fill="white"/>
<path d="M386.046 213.376C386.012 213.241 385.979 213.11 385.932 212.975C384.399 207.942 381.246 203.453 376.885 200.097C376.833 200.07 376.771 200.022 376.719 199.992C376.316 199.726 375.894 199.469 375.472 199.217C374.903 198.89 374.315 198.577 373.731 198.263C373.682 198.232 373.628 198.207 373.57 198.189C371.313 197.223 369.164 196.056 367.155 194.705L367.055 194.644C364.343 192.989 361.892 191.064 360.199 188.394C360.16 188.338 360.129 188.278 360.104 188.215C360.071 188.215 360.071 188.168 360.056 188.155C358.496 185.977 357.553 183.59 357.747 181.112V181.038C357.273 176.996 357.747 172.741 357.567 168.639C357.567 168.386 357.567 168.134 357.52 167.877C357.472 167.62 357.472 167.31 357.453 167.058C357.47 166.975 357.47 166.889 357.453 166.805C357.389 165.994 357.275 165.188 357.112 164.388C355.571 156.719 350.208 149.885 343.646 145.068C343.497 144.952 343.338 144.847 343.171 144.755C335.812 139.798 327.756 137.873 322.479 137.129C322.43 137.123 322.381 137.123 322.332 137.129C320.35 136.994 318.467 137.024 316.727 136.663C316.694 136.663 316.661 136.663 316.647 136.663C314.699 136.316 312.961 135.316 311.772 133.858C311.322 133.328 310.921 132.764 310.572 132.172C310.524 132.139 310.489 132.091 310.473 132.037C309.106 130.084 308.204 127.888 307.827 125.592C307.78 125.37 307.713 125.156 307.68 124.934C306.542 119.969 306.509 114.569 306.48 110.105C306.039 103.228 302.711 94.3648 296.926 88.054C296.926 88.054 296.926 88.0236 296.893 88.0236C295.215 86.4827 293.327 85.1491 291.274 84.056C286.083 81.3862 280.124 80.246 274.204 80.7895C274.204 80.7895 274.204 80.7895 274.171 80.7895C274.161 80.7869 274.151 80.7869 274.142 80.7895C270.501 81.0722 266.972 82.0913 263.81 83.7729C262.647 84.3865 261.548 85.0947 260.524 85.8895C254.36 90.7499 250.827 98.3454 249.851 105.836C249.77 106.416 249.723 106.986 249.689 107.579C249.673 107.648 249.673 107.719 249.689 107.788C248.92 108.75 248.465 109.894 248.376 111.084C248.289 112.406 248.635 113.721 249.371 114.859C250.106 115.998 251.197 116.907 252.501 117.469V117.587C252.501 117.974 252.501 118.379 252.501 118.767C252.596 121.417 253.225 124.028 254.355 126.467C256.252 130.583 259.633 135.282 265.365 136.027C266.384 136.161 267.41 136.246 268.438 136.284L271.15 146.937L273.474 156.17C283.607 150.874 296.148 149.275 306.85 152.368H306.883C311.893 153.762 316.445 156.285 320.122 159.706C332.014 168.613 345.4 211.002 346.201 213.628C346.205 213.66 346.216 213.69 346.235 213.715C346.235 213.715 346.235 213.715 346.235 213.746C346.235 213.776 346.235 213.789 346.268 213.82C346.302 213.944 346.351 214.064 346.415 214.177C346.462 214.312 346.514 214.447 346.576 214.582L346.917 215.388C349.288 221.01 356.941 239.341 358.643 243.867C360.678 249.21 362.266 249.628 362.266 249.628C362.353 249.61 362.436 249.58 362.513 249.537L362.835 249.419C367.97 247.509 372.733 244.843 376.937 241.528C376.97 241.528 376.97 241.528 376.97 241.497C380.862 237.864 383.684 233.381 385.173 228.471C386.815 223.583 387.115 218.397 386.046 213.376Z" fill="white"/>
<path d="M255.029 104.108C255.029 104.108 256.266 85.0668 275.627 80.5896C294.987 76.1124 306.528 96.7823 307.396 110.035C308.263 123.288 307.396 132.439 317.571 136.602C317.571 136.602 346.97 136.275 357.79 161.092C357.79 161.092 359.255 173.243 358.658 181.065C358.06 188.887 368.687 195.746 374.476 198.163C380.266 200.58 390.332 210.401 387.596 226.442C384.86 242.482 363.177 249.616 363.177 249.616C363.177 249.616 361.579 249.18 359.549 243.845C357.52 238.51 347.131 213.759 347.131 213.759C347.131 213.759 333.29 168.9 321.004 159.72C314.243 154.659 306.993 152.368 302.218 149.703C297.187 146.894 294.769 143.797 293.09 141.811C289.814 137.939 284.005 132.09 288.206 118.293C292.407 104.495 288.173 111.451 284.219 109.508C284.219 109.508 279.316 102.54 271.919 107.47C264.522 112.4 266.323 100.397 266.323 100.397L263.075 104.413C263.075 104.413 257.983 105.34 255.029 104.108Z" fill="#A78BFA" fill-opacity="0.58"/>
<path d="M206.668 130.056C206.877 129.786 207.143 129.503 207.365 129.22C207.588 128.937 207.868 128.667 208.129 128.397C208.977 127.558 209.895 126.78 210.874 126.071C211.183 125.845 211.491 125.636 211.799 125.431L206.668 130.056Z" fill="#A78BFA" fill-opacity="0.58"/>
<path d="M60.3974 322.203H45.2525C42.9291 322.203 40.544 322.203 38.4008 321.332C36.2576 320.461 34.6075 318.902 33.038 317.352C22.0942 306.742 14.9485 299.016 4 288.376L7.67005 284.892C9.68147 283.336 12.2471 282.515 14.876 282.587C17.5048 282.66 20.0124 283.62 21.9188 285.284L37.4287 299.278L60.3974 322.203Z" fill="#A78BFA" fill-opacity="0.58"/>
<path d="M274.451 265.826C266.917 267.321 259.348 268.744 251.743 270.094C242.775 271.691 233.804 273.253 224.829 274.78L216.46 265.377L202.709 278.477C178.034 282.543 153.311 286.352 128.54 289.906L128.654 289.801L193.411 229.782C197.836 225.677 203.411 222.774 209.519 221.394C215.627 220.015 222.031 220.212 228.025 221.964L253.53 229.438C257.745 242.745 264.863 255.125 274.451 265.826Z" fill="white"/>
<path d="M255.517 182.954C252.316 193.133 251.567 203.964 252.885 214.778C253.202 217.551 253.676 220.309 254.308 223.053C254.891 225.797 255.64 228.497 256.484 231.197C260.314 243.272 266.445 254.626 274.593 264.732C274.27 264.793 273.962 264.867 273.682 264.924C264.488 254.429 257.642 242.37 253.535 229.438C252.719 226.824 252.008 224.211 251.439 221.598C250.87 218.985 250.396 216.289 250.074 213.619C248.808 203.189 249.538 192.745 252.625 182.941C254.893 175.719 258.976 169.086 264.545 163.578C265.934 162.193 267.444 160.914 269.059 159.754L269.14 159.697L269.401 159.519L269.514 159.427C271.038 158.364 272.64 157.397 274.308 156.536C277.953 154.629 281.874 153.206 285.954 152.311C283.199 153.168 280.54 154.263 278.011 155.582C276.28 156.48 274.618 157.487 273.037 158.596L272.924 158.683L272.663 158.861H272.634L272.554 158.918C270.88 160.117 269.314 161.44 267.874 162.872C262.106 168.589 257.874 175.466 255.517 182.954Z" fill="#18181B"/>
<path d="M307.282 232.191C307.282 232.191 320.473 247.586 331.464 265.97C318.339 261.092 291.729 262.921 281.06 263.94C279.643 264.003 278.232 264.148 276.835 264.376C276.748 264.377 276.66 264.387 276.575 264.406C276.543 264.409 276.512 264.409 276.48 264.406C275.797 264.528 275.162 264.633 274.583 264.75C266.435 254.644 260.304 243.289 256.475 231.215C255.631 228.515 254.881 225.815 254.298 223.071C253.715 220.327 253.208 217.561 252.876 214.796C251.558 203.982 252.307 193.15 255.507 182.972C257.87 175.483 262.108 168.605 267.883 162.89C269.324 161.457 270.889 160.135 272.563 158.936L272.644 158.879H272.672L272.933 158.701L273.047 158.613C274.627 157.505 276.289 156.498 278.021 155.6C280.55 154.28 283.209 153.186 285.963 152.329C293.208 150.717 300.823 150.765 307.694 152.764H307.727C311.772 154.602 316.485 156.749 320.966 160.107C327.287 166.043 330.63 174.044 333.816 181.831C338.216 192.574 342.629 203.305 347.055 214.025C347.057 214.058 347.068 214.089 347.088 214.116C347.088 214.116 347.088 214.116 347.088 214.147C347.088 214.177 347.088 214.19 347.121 214.221C347.156 214.345 347.205 214.464 347.268 214.578C347.314 214.716 347.367 214.851 347.429 214.983C318.164 209.365 307.282 232.191 307.282 232.191Z" fill="#18181B"/>
<path d="M269.059 159.754C267.443 160.909 265.932 162.182 264.54 163.561C258.971 169.069 254.888 175.702 252.62 182.924C249.533 192.728 248.803 203.172 250.069 213.602C249.694 213.794 249.305 213.96 248.916 214.138C240.761 217.792 231.747 220.479 222.586 220.418C217.562 220.368 212.609 219.322 208.064 217.353C203.521 215.384 199.492 212.537 196.255 209.008C191.139 203.442 187.905 196.713 185.515 189.845C182.998 182.593 181.082 175.311 177.962 168.256C175.966 163.761 173.97 158.718 169.664 155.556C167.454 153.945 164.69 153.378 162.499 151.767C160.173 150.049 158.487 147.708 157.677 145.069C157.319 143.932 157.091 142.764 156.994 141.584C156.587 136.929 157.943 132.064 159.607 127.752L151.115 122.5C148.806 121.067 147.796 117.966 149.161 115.741C149.552 115.105 150.089 114.554 150.734 114.127C151.379 113.7 152.117 113.407 152.898 113.267C153.623 113.14 154.368 113.15 155.088 113.296C155.809 113.442 156.49 113.721 157.089 114.116L174.633 125.692C174.633 125.692 175.985 121.681 180.124 122.918C183.993 124.081 197.768 129.05 197.294 144.389C197.228 146.727 197.9 149.032 199.228 151.027L215.701 176.06C216.868 177.832 218.426 179.358 220.276 180.542C222.125 181.725 224.224 182.539 226.437 182.932C228.65 183.324 230.928 183.286 233.124 182.819C235.321 182.353 237.386 181.469 239.186 180.224L268.02 160.473L269.059 159.754Z" fill="white"/>
<path d="M274.455 166.783L255.014 210.945L250.012 213.092L241.676 216.659C248.352 191.577 239.191 179.883 239.191 179.883L263.331 163.334C263.687 163.456 264.042 163.56 264.417 163.678C269.386 165.185 274.455 166.783 274.455 166.783Z" fill="#18181B"/>
<path d="M284.635 263.325C276.171 265.25 282.995 263.791 274.483 265.477" stroke="#18181B" stroke-width="5.14" stroke-miterlimit="10"/>
<path d="M367.06 262.285C366.149 260.077 365.239 257.869 364.348 255.661L364.248 255.434C354.133 230.755 344.003 206.088 333.859 181.435C330.672 173.661 327.329 165.647 321.009 159.711C307.836 147.36 284.593 148.536 269.566 159.071L269.453 159.158L269.353 159.219C267.643 160.436 266.046 161.78 264.578 163.239C259.009 168.749 254.926 175.382 252.658 182.606C248.774 194.914 248.613 208.237 251.472 221.263C252.037 223.903 252.753 226.511 253.563 229.103C257.781 242.409 264.9 254.789 274.488 265.491C266.949 266.98 259.38 268.403 251.78 269.759C210.847 277.046 169.778 283.64 128.573 289.54C103.784 293.107 77.5195 296.944 52.6637 299.993L43.1804 301.069C42.142 301.188 41.0869 301.094 40.0931 300.793C39.0988 300.492 38.1903 299.991 37.4335 299.326L21.9188 285.307C20.0124 283.643 17.5048 282.682 14.876 282.61C12.2471 282.538 9.68147 283.358 7.67005 284.915L4 288.399C14.9485 299.039 22.0942 306.765 33.0427 317.405C34.6359 318.955 36.2765 320.536 38.4055 321.386C40.5345 322.235 42.9338 322.257 45.2572 322.257H58.8374C70.3217 322.257 81.8122 322.257 93.3093 322.257L326.092 322.3C335.627 322.3 345.485 322.244 354.229 318.738C358.447 317.025 362.243 314.543 365.386 311.443" stroke="#18181B" stroke-width="5.14" stroke-miterlimit="10"/>
<path d="M288.5 206.547L369.635 317.222C370.766 318.765 372.293 320.028 374.08 320.902C375.868 321.776 377.861 322.234 379.886 322.235H415.216C416.599 322.235 417.926 321.73 418.904 320.832C419.883 319.934 420.432 318.715 420.432 317.444C420.432 316.174 419.883 314.955 418.904 314.057C417.926 313.158 416.599 312.653 415.216 312.653H398.554C395.863 312.654 393.233 311.916 391.002 310.534C388.771 309.152 387.039 307.189 386.031 304.897L363.418 253.575" stroke="#18181B" stroke-width="5.14" stroke-miterlimit="10"/>
<path d="M128.568 289.54L128.682 289.436L193.444 229.438C197.869 225.332 203.443 222.428 209.55 221.045C215.657 219.661 222.062 219.853 228.058 221.599L253.559 229.077" stroke="#18181B" stroke-width="5.14" stroke-miterlimit="10"/>
<path d="M367.281 262.36L367.055 262.286" stroke="#18181B" stroke-width="5.14" stroke-miterlimit="10"/>
<path d="M224.957 274.531L216.498 265.028L202.6 278.242" stroke="#18181B" stroke-width="5.14" stroke-miterlimit="10"/>
<path d="M322.194 161.113V161.1" stroke="#18181B" stroke-width="5.14" stroke-miterlimit="10"/>
<path d="M378.307 313.625C380.435 313.552 382.566 313.615 384.685 313.812C386.415 313.973 388.222 314.069 389.858 314.81C391.219 315.428 392.636 316.913 392.565 318.729C392.437 322.274 388.393 322.248 386.178 322.248" stroke="#18181B" stroke-width="5.14" stroke-miterlimit="10"/>
<path d="M379.156 322.234H386.173H386.273H407.757" stroke="#18181B" stroke-width="5.14" stroke-miterlimit="10"/>
<path d="M250.092 213.258C250.092 213.258 250.045 213.258 250.026 213.288C249.67 213.467 249.31 213.628 248.94 213.794C246.574 214.863 244.15 215.82 241.676 216.659C235.569 218.763 229.12 220.144 222.61 220.074C217.585 220.022 212.631 218.977 208.087 217.007C203.542 215.038 199.513 212.192 196.274 208.663C191.158 203.097 187.929 196.368 185.539 189.5C183.021 182.249 181.106 174.967 177.986 167.911C175.99 163.421 173.989 158.378 169.688 155.212C167.478 153.6 164.714 153.034 162.523 151.422C160.196 149.704 158.509 147.363 157.696 144.724C157.342 143.587 157.115 142.419 157.018 141.24C156.61 136.584 157.966 131.724 159.631 127.412L151.134 122.16C148.829 120.727 147.815 117.626 149.185 115.4C149.576 114.765 150.113 114.214 150.758 113.787C151.403 113.36 152.141 113.066 152.921 112.927C153.646 112.8 154.392 112.81 155.112 112.956C155.833 113.102 156.514 113.381 157.113 113.776L174.657 125.352C174.657 125.352 176.008 121.341 180.148 122.578C184.012 123.741 197.787 128.71 197.318 144.049C197.252 146.387 197.924 148.692 199.252 150.686L215.72 175.725C216.888 177.493 218.446 179.016 220.294 180.198C222.142 181.379 224.238 182.192 226.449 182.584C228.66 182.976 230.935 182.938 233.129 182.473C235.323 182.008 237.387 181.126 239.186 179.884L263.326 163.334L268.021 160.129L269.159 159.353L269.419 159.175L269.533 159.088" stroke="#18181B" stroke-width="5.14" stroke-miterlimit="10"/>
<path d="M174.7 125.314C174.7 125.314 171.964 131.433 181.4 135.509" stroke="#18181B" stroke-width="5.14" stroke-miterlimit="10"/>
<path d="M158.128 132.015C158.128 132.015 157.18 139.419 167.891 142.185C171.684 143.165 174.757 139.136 172.448 136.209L172.334 136.074" stroke="#18181B" stroke-width="5.14" stroke-miterlimit="10"/>
<path d="M156.995 141.158C156.995 141.158 160.57 147.59 166.478 146.876C171.694 146.245 169.797 141.563 169.797 141.563" stroke="#18181B" stroke-width="5.14" stroke-miterlimit="10"/>
<path d="M159.641 127.372L165.866 131.226" stroke="#18181B" stroke-width="5.14" stroke-miterlimit="10"/>
<path d="M361.996 249.99C373.992 246.558 382.475 239.682 386.088 228.476C389.55 217.736 387.297 205.524 376.363 199.226C370.915 196.121 364.48 193.695 361.1 188.377C356.486 181.104 359.597 172.232 358.003 164.362C356.348 156.192 350.365 148.954 343.19 144.102C337.873 140.524 331.69 138.184 325.172 137.282C320.359 136.615 315.978 137.717 312.687 133.797C307.471 127.609 307.433 117.496 307.391 110.044C307.362 104.321 305.892 98.6246 302.687 93.7163L302.616 93.6074C300.073 89.6507 296.485 86.3464 292.184 83.9998C284.123 79.7142 272.815 79.3179 264.683 83.7254C263.522 84.3621 262.424 85.0907 261.401 85.903C253.886 91.813 250.292 101.8 250.467 110.693" stroke="#18181B" stroke-width="5.14" stroke-miterlimit="10"/>
<path d="M265.74 99.8223C265.323 102.435 263.587 104.857 260.524 105.584C257.044 106.394 255.199 109.504 254.223 112.631C252.832 117.216 253.192 122.1 255.242 126.472C257.139 130.583 260.529 135.287 266.257 136.053C276.741 137.425 281.952 133.366 281.952 133.366" stroke="#18181B" stroke-width="5.14" stroke-miterlimit="10"/>
<path d="M274.474 113.816C275.469 113.816 276.276 113.075 276.276 112.161C276.276 111.247 275.469 110.506 274.474 110.506C273.479 110.506 272.672 111.247 272.672 112.161C272.672 113.075 273.479 113.816 274.474 113.816Z" fill="#18181B"/>
<path d="M258.647 112.722C259.642 112.722 260.448 111.981 260.448 111.067C260.448 110.153 259.642 109.412 258.647 109.412C257.652 109.412 256.845 110.153 256.845 111.067C256.845 111.981 257.652 112.722 258.647 112.722Z" fill="#18181B"/>
<path d="M265.74 99.8223C265.338 101.395 265.398 103.038 265.916 104.583C265.997 104.834 266.101 105.079 266.229 105.314C267.476 108.015 270.382 110.162 275.532 109.896C286.741 109.325 290.738 108.655 289.828 113.402C289.448 115.07 288.904 116.702 288.201 118.28C286.969 121.276 286.11 126.441 287.376 132.051V132.081C288.837 138.645 297.272 149.006 308.946 152.734" stroke="#18181B" stroke-width="5.14" stroke-miterlimit="10"/>
<path d="M266.726 112.561C266.726 112.561 264.829 118.911 265.024 119.848C265.218 120.784 267.636 120.061 267.636 120.061" stroke="#18181B" stroke-width="5.14" stroke-miterlimit="10"/>
<path d="M268.03 125.875C271.648 127.669 275.84 126.537 277.48 123.536" stroke="#18181B" stroke-width="5.14" stroke-miterlimit="10"/>
<path d="M283.337 118.749C286.449 115.721 286.235 110.894 282.858 107.966C279.482 105.039 274.222 105.12 271.111 108.147C267.999 111.175 268.213 116.003 271.59 118.93C274.966 121.858 280.226 121.776 283.337 118.749Z" stroke="#18181B" stroke-width="5.14" stroke-miterlimit="10"/>
<path d="M262.342 116.981C265.454 113.954 265.239 109.126 261.863 106.198C258.487 103.271 253.227 103.352 250.116 106.38C247.004 109.408 247.218 114.235 250.595 117.163C253.971 120.09 259.231 120.009 262.342 116.981Z" stroke="#18181B" stroke-width="5.14" stroke-miterlimit="10"/>
<path d="M256.053 106.38C256.228 106.38 256.408 106.38 256.588 106.402C258.128 106.536 259.551 107.214 260.558 108.293C261.565 109.372 262.076 110.767 261.984 112.186C261.9 113.489 261.275 114.714 260.236 115.605C259.197 116.497 257.825 116.988 256.403 116.977C256.223 116.977 256.043 116.968 255.863 116.951C254.323 116.818 252.9 116.14 251.893 115.063C250.886 113.984 250.375 112.589 250.467 111.171C250.55 109.866 251.176 108.641 252.216 107.749C253.256 106.857 254.63 106.367 256.053 106.38ZM256.053 105.261C254.324 105.253 252.657 105.852 251.392 106.935C250.127 108.018 249.361 109.504 249.248 111.088C249.137 112.798 249.753 114.481 250.967 115.781C252.181 117.081 253.897 117.897 255.754 118.057C255.97 118.078 256.186 118.088 256.403 118.087C258.128 118.094 259.79 117.498 261.053 116.42C262.316 115.341 263.085 113.862 263.203 112.282C263.314 110.572 262.698 108.889 261.484 107.589C260.27 106.289 258.554 105.473 256.697 105.313C256.483 105.292 256.268 105.282 256.053 105.283V105.261Z" fill="white"/>
<path d="M268.926 112.744L264.521 112.374" stroke="#18181B" stroke-width="5.14" stroke-miterlimit="10"/>
<path d="M277.044 107.988C277.228 107.988 277.412 107.997 277.594 108.014C279.179 108.155 280.643 108.853 281.68 109.963C282.717 111.073 283.245 112.508 283.156 113.968C283.068 115.311 282.421 116.571 281.35 117.488C280.279 118.406 278.865 118.91 277.4 118.898C277.22 118.898 277.03 118.898 276.85 118.876C275.264 118.736 273.8 118.037 272.763 116.926C271.726 115.815 271.197 114.379 271.288 112.918C271.377 111.575 272.023 110.315 273.095 109.398C274.166 108.48 275.58 107.976 277.044 107.988ZM277.044 106.869C275.273 106.861 273.565 107.474 272.27 108.584C270.974 109.694 270.189 111.216 270.074 112.84C269.956 114.593 270.586 116.319 271.829 117.653C273.073 118.987 274.832 119.824 276.736 119.986C276.957 120.007 277.178 120.018 277.4 120.017C279.171 120.025 280.879 119.412 282.175 118.302C283.47 117.192 284.255 115.67 284.37 114.046C284.488 112.297 283.862 110.574 282.624 109.24C281.385 107.907 279.631 107.068 277.732 106.899C277.511 106.878 277.29 106.868 277.068 106.869H277.044Z" fill="white"/>
<path d="M261.473 116.228C264.143 113.63 263.959 109.489 261.062 106.977C258.166 104.466 253.654 104.536 250.984 107.133C248.315 109.731 248.499 113.872 251.396 116.384C254.292 118.895 258.804 118.825 261.473 116.228Z" fill="#A78BFA" fill-opacity="0.58"/>
<path d="M282.498 118.012C285.181 115.402 284.996 111.241 282.086 108.718C279.176 106.196 274.643 106.266 271.961 108.875C269.279 111.485 269.464 115.646 272.373 118.169C275.283 120.692 279.816 120.622 282.498 118.012Z" fill="#A78BFA" fill-opacity="0.58"/>
<path d="M274.479 156.688L272.023 146.946L269.358 136.445" stroke="#18181B" stroke-width="5.14" stroke-miterlimit="10"/>
<path d="M430.75 322.217H10.041" stroke="#18181B" stroke-width="5.14" stroke-miterlimit="10"/>
</svg>
