<svg xmlns="http://www.w3.org/2000/svg" xmlns:xlink="http://www.w3.org/1999/xlink" width="500" zoomAndPan="magnify" viewBox="0 0 375 374.999991" height="500" preserveAspectRatio="xMidYMid meet" version="1.0"><defs><g/><clipPath id="ef50d99d0a"><path d="M 99.523438 144.320312 L 276.753906 144.320312 L 276.753906 248.382812 L 99.523438 248.382812 Z M 99.523438 144.320312 " clip-rule="nonzero"/></clipPath><clipPath id="f40de79f6b"><path d="M 187.949219 144.320312 L 276.371094 196.351562 L 187.949219 248.382812 L 99.523438 196.351562 Z M 187.949219 144.320312 " clip-rule="nonzero"/></clipPath><clipPath id="f82fbb8230"><path d="M 99.523438 95.578125 L 276.371094 95.578125 L 276.371094 196.351562 L 99.523438 196.351562 Z M 99.523438 95.578125 " clip-rule="nonzero"/></clipPath><clipPath id="65ea350306"><path d="M 23.035156 0 L 352 0 L 352 189.625 L 23.035156 189.625 Z M 23.035156 0 " clip-rule="nonzero"/></clipPath><clipPath id="9962b3ca72"><path d="M 187.5 0 L 351.964844 94.8125 L 187.5 189.625 L 23.035156 94.8125 Z M 187.5 0 " clip-rule="nonzero"/></clipPath><clipPath id="de789c39d0"><path d="M 187.484375 40.664062 L 276.582031 40.664062 L 276.582031 141.945312 L 187.484375 141.945312 Z M 187.484375 40.664062 " clip-rule="nonzero"/></clipPath><clipPath id="ddb781e20a"><path d="M 276.582031 91.226562 L 187.484375 141.789062 L 187.484375 40.664062 Z M 276.582031 91.226562 " clip-rule="nonzero"/></clipPath></defs><g clip-path="url(#ef50d99d0a)"><g clip-path="url(#f40de79f6b)"><path fill="#03273d" d="M 99.523438 144.320312 L 276.347656 144.320312 L 276.347656 248.382812 L 99.523438 248.382812 Z M 99.523438 144.320312 " fill-opacity="1" fill-rule="nonzero"/></g></g><g clip-path="url(#f82fbb8230)"><path fill="#03273d" d="M 99.523438 95.578125 L 276.265625 95.578125 L 276.265625 196.351562 L 99.523438 196.351562 Z M 99.523438 95.578125 " fill-opacity="1" fill-rule="nonzero"/></g><g clip-path="url(#65ea350306)"><g clip-path="url(#9962b3ca72)"><path fill="#0b456c" d="M 23.035156 0 L 351.917969 0 L 351.917969 189.625 L 23.035156 189.625 Z M 23.035156 0 " fill-opacity="1" fill-rule="nonzero"/></g></g><g clip-path="url(#de789c39d0)"><g clip-path="url(#ddb781e20a)"><path fill="#afd6df" d="M 276.582031 40.664062 L 276.582031 141.945312 L 187.484375 141.945312 L 187.484375 40.664062 Z M 276.582031 40.664062 " fill-opacity="1" fill-rule="nonzero"/></g></g><g fill="#002f40" fill-opacity="1"><g transform="translate(80.409311, 326.505919)"><g><path d="M 48.21875 -57.328125 L 48.21875 -20.359375 C 48.21875 -13.316406 46.316406 -7.988281 42.515625 -4.375 C 38.722656 -0.757812 33.164062 1.046875 25.84375 1.046875 C 18.53125 1.046875 12.972656 -0.757812 9.171875 -4.375 C 5.367188 -7.988281 3.46875 -13.316406 3.46875 -20.359375 L 3.46875 -57.328125 L 16.53125 -57.328125 L 16.53125 -24.1875 C 16.53125 -19.550781 17.257812 -16.328125 18.71875 -14.515625 C 20.1875 -12.710938 22.5625 -11.8125 25.84375 -11.8125 C 29.132812 -11.8125 31.507812 -12.710938 32.96875 -14.515625 C 34.425781 -16.328125 35.15625 -19.550781 35.15625 -24.1875 L 35.15625 -57.328125 Z M 48.21875 -57.328125 "/></g></g></g><g fill="#002f40" fill-opacity="1"><g transform="translate(138.484902, 326.505919)"><g><path d="M 4.171875 0 L 4.171875 -35.640625 L 16.46875 -35.640625 L 16.46875 -31.890625 L 16.609375 -31.890625 C 19.804688 -35.085938 23.210938 -36.6875 26.828125 -36.6875 C 28.585938 -36.6875 30.332031 -36.453125 32.0625 -35.984375 C 33.800781 -35.523438 35.46875 -34.804688 37.0625 -33.828125 C 38.664062 -32.859375 39.960938 -31.484375 40.953125 -29.703125 C 41.953125 -27.921875 42.453125 -25.847656 42.453125 -23.484375 L 42.453125 0 L 30.15625 0 L 30.15625 -20.15625 C 30.15625 -22.007812 29.5625 -23.628906 28.375 -25.015625 C 27.195312 -26.398438 25.660156 -27.09375 23.765625 -27.09375 C 21.910156 -27.09375 20.226562 -26.375 18.71875 -24.9375 C 17.21875 -23.507812 16.46875 -21.914062 16.46875 -20.15625 L 16.46875 0 Z M 4.171875 0 "/></g></g></g><g fill="#002f40" fill-opacity="1"><g transform="translate(190.794698, 326.505919)"><g><path d="M 5.34375 -55.515625 C 6.78125 -56.953125 8.492188 -57.671875 10.484375 -57.671875 C 12.484375 -57.671875 14.195312 -56.953125 15.625 -55.515625 C 17.0625 -54.078125 17.78125 -52.363281 17.78125 -50.375 C 17.78125 -48.382812 17.0625 -46.671875 15.625 -45.234375 C 14.195312 -43.796875 12.484375 -43.078125 10.484375 -43.078125 C 8.492188 -43.078125 6.78125 -43.796875 5.34375 -45.234375 C 3.914062 -46.671875 3.203125 -48.382812 3.203125 -50.375 C 3.203125 -52.363281 3.914062 -54.078125 5.34375 -55.515625 Z M 4.171875 -35.640625 L 4.171875 0 L 16.46875 0 L 16.46875 -35.640625 Z M 4.171875 -35.640625 "/></g></g></g><g fill="#002f40" fill-opacity="1"><g transform="translate(218.165717, 326.505919)"><g><path d="M 6.25 -35.640625 L 6.25 -43.21875 C 6.300781 -48.539062 7.550781 -52.800781 10 -56 C 12.457031 -59.195312 15.863281 -60.796875 20.21875 -60.796875 C 22.070312 -60.796875 23.84375 -60.53125 25.53125 -60 C 27.226562 -59.46875 28.445312 -58.921875 29.1875 -58.359375 L 30.359375 -57.609375 L 26.0625 -48.921875 C 24.945312 -49.566406 23.71875 -49.890625 22.375 -49.890625 C 20.84375 -49.890625 19.820312 -49.367188 19.3125 -48.328125 C 18.800781 -47.285156 18.546875 -45.46875 18.546875 -42.875 L 18.546875 -35.640625 L 26.75 -35.640625 L 26.75 -26.265625 L 18.546875 -26.265625 L 18.546875 0 L 6.25 0 L 6.25 -26.265625 L 1.109375 -26.265625 L 1.109375 -35.640625 Z M 6.25 -35.640625 "/></g></g></g><g fill="#002f40" fill-opacity="1"><g transform="translate(250.607864, 326.505919)"><g><path d="M 31.203125 -35.640625 L 45.375 -35.640625 L 17.375 18.0625 L 3.203125 18.0625 L 15.5 -5.5625 L -1.390625 -35.640625 L 12.78125 -35.640625 L 22.71875 -17.375 Z M 31.203125 -35.640625 "/></g></g></g></svg>