<svg xmlns="http://www.w3.org/2000/svg" xmlns:xlink="http://www.w3.org/1999/xlink" width="500" zoomAndPan="magnify" viewBox="0 0 375 374.999991" height="500" preserveAspectRatio="xMidYMid meet" version="1.0"><defs><clipPath id="77bb4c3b41"><path d="M 87.199219 218.863281 L 289 218.863281 L 289 337.5 L 87.199219 337.5 Z M 87.199219 218.863281 " clip-rule="nonzero"/></clipPath><clipPath id="d1ad086eed"><path d="M 188.011719 218.863281 L 288.820312 278.179688 L 188.011719 337.5 L 87.199219 278.179688 Z M 188.011719 218.863281 " clip-rule="nonzero"/></clipPath><clipPath id="e39304578a"><path d="M 87.199219 163.296875 L 288.820312 163.296875 L 288.820312 278.179688 L 87.199219 278.179688 Z M 87.199219 163.296875 " clip-rule="nonzero"/></clipPath><clipPath id="6d82e03daa"><path d="M 0 54.328125 L 375 54.328125 L 375 270.515625 L 0 270.515625 Z M 0 54.328125 " clip-rule="nonzero"/></clipPath><clipPath id="3c4417d988"><path d="M 187.5 54.328125 L 375 162.421875 L 187.5 270.515625 L 0 162.421875 Z M 187.5 54.328125 " clip-rule="nonzero"/></clipPath><clipPath id="841d143a5a"><path d="M 187.480469 100.691406 L 289.0625 100.691406 L 289.0625 216 L 187.480469 216 Z M 187.480469 100.691406 " clip-rule="nonzero"/></clipPath><clipPath id="9babc623c9"><path d="M 289.0625 158.332031 L 187.480469 215.976562 L 187.480469 100.691406 Z M 289.0625 158.332031 " clip-rule="nonzero"/></clipPath></defs><g clip-path="url(#77bb4c3b41)"><g clip-path="url(#d1ad086eed)"><path fill="#03273d" d="M 87.199219 218.863281 L 288.792969 218.863281 L 288.792969 337.5 L 87.199219 337.5 Z M 87.199219 218.863281 " fill-opacity="1" fill-rule="nonzero"/></g></g><g clip-path="url(#e39304578a)"><path fill="#03273d" d="M 87.199219 163.296875 L 288.699219 163.296875 L 288.699219 278.179688 L 87.199219 278.179688 Z M 87.199219 163.296875 " fill-opacity="1" fill-rule="nonzero"/></g><g clip-path="url(#6d82e03daa)"><g clip-path="url(#3c4417d988)"><path fill="#0b456c" d="M 0 54.328125 L 374.945312 54.328125 L 374.945312 270.515625 L 0 270.515625 Z M 0 54.328125 " fill-opacity="1" fill-rule="nonzero"/></g></g><g clip-path="url(#841d143a5a)"><g clip-path="url(#9babc623c9)"><path fill="#afd6df" d="M 289.0625 100.691406 L 289.0625 216.15625 L 187.480469 216.15625 L 187.480469 100.691406 Z M 289.0625 100.691406 " fill-opacity="1" fill-rule="nonzero"/></g></g></svg>